<?xml version="1.0" encoding="iso-8859-1"?>
<!-- Generator: Adobe Illustrator 19.0.0, SVG Export Plug-In . SVG Version: 6.00 Build 0)  -->
<svg xmlns="http://www.w3.org/2000/svg" xmlns:xlink="http://www.w3.org/1999/xlink" version="1.1" id="Capa_1" x="0px" y="0px" viewBox="0 0 490 490" style="enable-background:new 0 0 490 490;" xml:space="preserve" width="512px" height="512px">
<g id="Black_19_">
	<polygon points="234.067,313.784 203.212,284.154 182.004,306.219 235.506,357.624 338.636,244.816 316.035,224.144  " fill="#b3b5b5"/>
	<path d="M15.175,428.75H474.81c8.361,0,15.19-6.829,15.19-15.175V76.425c0-8.345-6.829-15.175-15.175-15.175H15.175   C6.829,61.25,0,68.079,0,76.425V413.56C0,421.921,6.829,428.75,15.175,428.75z M30.625,91.875h428.75v306.25H30.625V91.875z" fill="#b3b5b5"/>
	<circle cx="76.563" cy="122.546" r="15.313" fill="#b3b5b5"/>
	<circle cx="122.822" cy="122.546" r="15.313" fill="#b3b5b5"/>
	<circle cx="169.096" cy="122.546" r="15.313" fill="#b3b5b5"/>
	<rect x="61.25" y="153.125" width="367.5" height="30.625" fill="#b3b5b5"/>
</g>
<g>
</g>
<g>
</g>
<g>
</g>
<g>
</g>
<g>
</g>
<g>
</g>
<g>
</g>
<g>
</g>
<g>
</g>
<g>
</g>
<g>
</g>
<g>
</g>
<g>
</g>
<g>
</g>
<g>
</g>
</svg>
