<?xml version="1.0" encoding="iso-8859-1"?>
<!-- Generator: Adobe Illustrator 19.0.0, SVG Export Plug-In . SVG Version: 6.00 Build 0)  -->
<svg xmlns="http://www.w3.org/2000/svg" xmlns:xlink="http://www.w3.org/1999/xlink" version="1.1" id="Capa_1" x="0px" y="0px" viewBox="0 0 490 490" style="enable-background:new 0 0 490 490;" xml:space="preserve" width="512px" height="512px">
<g>
	<path d="M0,444.063h490V45.938H0V444.063z M15.313,61.25h459.375v367.5H15.313V61.25z" fill="#4d1a00"/>
	<path d="M245,198.043c-50.741,0-91.875,41.135-91.875,91.875c0,50.741,41.134,91.875,91.875,91.875s91.875-41.134,91.875-91.875   C336.875,239.177,295.741,198.043,245,198.043z M225.844,329.114l-30.7-30.73l10.826-10.826l19.305,19.305l50.872-56.54   l11.395,10.258L225.844,329.114z" fill="#4d1a00"/>
	<rect x="153.125" y="106.171" width="183.75" height="15.313" fill="#4d1a00"/>
	<rect x="76.563" y="152.108" width="336.875" height="15.313" fill="#4d1a00"/>
</g>
<g>
</g>
<g>
</g>
<g>
</g>
<g>
</g>
<g>
</g>
<g>
</g>
<g>
</g>
<g>
</g>
<g>
</g>
<g>
</g>
<g>
</g>
<g>
</g>
<g>
</g>
<g>
</g>
<g>
</g>
</svg>
